<svg width="43" height="43" viewBox="0 0 43 43" fill="none" xmlns="http://www.w3.org/2000/svg">
<rect x="1" y="1" width="41" height="41" rx="20.5" stroke="#D6232A" stroke-width="2"/>
<g clip-path="url(#clip0_65_1672)">
<path d="M16.5 27.3333C17.4205 27.3333 18.1667 26.5871 18.1667 25.6667C18.1667 24.7462 17.4205 24 16.5 24C15.5795 24 14.8333 24.7462 14.8333 25.6667C14.8333 26.5871 15.5795 27.3333 16.5 27.3333Z" stroke="#D6232A" stroke-width="2" stroke-linecap="round" stroke-linejoin="round"/>
<path d="M26.5 27.3333C27.4205 27.3333 28.1667 26.5871 28.1667 25.6667C28.1667 24.7462 27.4205 24 26.5 24C25.5795 24 24.8333 24.7462 24.8333 25.6667C24.8333 26.5871 25.5795 27.3333 26.5 27.3333Z" stroke="#D6232A" stroke-width="2" stroke-linecap="round" stroke-linejoin="round"/>
<path d="M24.8333 25.6665H18.1667M14.8333 25.6665H13.1667V16.4998C13.1667 16.2788 13.2545 16.0669 13.4107 15.9106C13.567 15.7543 13.779 15.6665 14 15.6665H25.6667C26.7717 15.6665 27.8315 16.2811 28.6129 17.375C29.3943 18.469 29.8333 19.9527 29.8333 21.4998V25.6665H28.1667H14.8333Z" stroke="#D6232A" stroke-width="2" stroke-linecap="round" stroke-linejoin="round"/>
<path d="M24.8333 15.6665L26.0833 21.4998H29.8333" stroke="#D6232A" stroke-width="2" stroke-linecap="round" stroke-linejoin="round"/>
<path d="M13.1667 19.8335H25.6667" stroke="#D6232A" stroke-width="2" stroke-linecap="round" stroke-linejoin="round"/>
<path d="M17.3333 15.6665V19.8332" stroke="#D6232A" stroke-width="2" stroke-linecap="round" stroke-linejoin="round"/>
<path d="M21.5 15.6665V19.8332" stroke="#D6232A" stroke-width="2" stroke-linecap="round" stroke-linejoin="round"/>
</g>
<defs>
<clipPath id="clip0_65_1672">
<rect width="20" height="20" fill="white" transform="translate(11.5 11.5)"/>
</clipPath>
</defs>
</svg>
