<svg width="20" height="20" viewBox="0 0 20 20" fill="none" xmlns="http://www.w3.org/2000/svg">
<path d="M15.8333 5.00016C15.8333 5.92064 15.0871 6.66683 14.1667 6.66683C13.2462 6.66683 12.5 5.92064 12.5 5.00016C12.5 4.07969 13.2462 3.3335 14.1667 3.3335C15.0871 3.3335 15.8333 4.07969 15.8333 5.00016Z" stroke="#D6232A" stroke-width="2" stroke-linecap="round" stroke-linejoin="round"/>
<path d="M15.8333 15.0002C15.8333 15.9206 15.0871 16.6668 14.1667 16.6668C13.2462 16.6668 12.5 15.9206 12.5 15.0002C12.5 14.0797 13.2462 13.3335 14.1667 13.3335C15.0871 13.3335 15.8333 14.0797 15.8333 15.0002Z" stroke="#D6232A" stroke-width="2" stroke-linecap="round" stroke-linejoin="round"/>
<path d="M14.1667 13.3332L14.1667 6.6665M14.1667 3.33317L14.1667 1.6665L5 1.6665C4.77898 1.6665 4.56702 1.7543 4.41074 1.91058C4.25446 2.06686 4.16666 2.27882 4.16666 2.49984L4.16666 14.1665C4.16666 15.2716 4.78125 16.3314 5.87521 17.1128C6.96917 17.8942 8.4529 18.3332 10 18.3332L14.1667 18.3332L14.1667 16.6665L14.1667 3.33317Z" stroke="#D6232A" stroke-width="2" stroke-linecap="round" stroke-linejoin="round"/>
<path d="M4.16666 13.3335L10 14.5835L10 18.3335" stroke="#D6232A" stroke-width="2" stroke-linecap="round" stroke-linejoin="round"/>
<path d="M8.33334 1.6665L8.33334 14.1665" stroke="#D6232A" stroke-width="2" stroke-linecap="round" stroke-linejoin="round"/>
<path d="M4.16666 5.8335L8.33333 5.8335" stroke="#D6232A" stroke-width="2" stroke-linecap="round" stroke-linejoin="round"/>
<path d="M4.16666 10L8.33333 10" stroke="#D6232A" stroke-width="2" stroke-linecap="round" stroke-linejoin="round"/>
</svg>
