<svg width="43" height="43" viewBox="0 0 43 43" fill="none" xmlns="http://www.w3.org/2000/svg">
<rect x="1" y="1" width="41" height="41" rx="20.5" stroke="#D6232A" stroke-width="2"/>
<path fill-rule="evenodd" clip-rule="evenodd" d="M25.666 12.8535C26.2987 12.8535 26.8121 13.3671 26.8123 13.9998V14.5198H27.3323C28.8853 14.5198 30.1444 15.7793 30.1448 17.3323V27.3323C30.1448 28.8856 28.8856 30.1448 27.3323 30.1448H15.666C14.1129 30.1446 12.8535 28.8854 12.8535 27.3323V17.3323C12.8539 15.7794 14.1131 14.52 15.666 14.5198H16.1873V13.9998C16.1874 13.3673 16.6999 12.854 17.3323 12.8535C17.965 12.8535 18.4784 13.3671 18.4785 13.9998V14.5198H24.5198V13.9998C24.5199 13.3672 25.0335 12.8537 25.666 12.8535ZM15.1448 27.3323C15.1448 27.6198 15.3786 27.8533 15.666 27.8535H27.3323C27.6199 27.8535 27.8535 27.6199 27.8535 27.3323V21.8123H15.1448V27.3323ZM15.666 16.8123C15.3788 16.8125 15.1452 17.0451 15.1448 17.3323V19.5198H27.8535V17.3323C27.8531 17.045 27.6197 16.8123 27.3323 16.8123H26.8123V17.3323C26.8123 17.9651 26.2988 18.4785 25.666 18.4785C25.0334 18.4783 24.5198 17.965 24.5198 17.3323V16.8123H18.4785V17.3323C18.4785 17.9651 17.9651 18.4785 17.3323 18.4785C16.6998 18.4781 16.1873 17.9648 16.1873 17.3323V16.8123H15.666Z" fill="#D6232A"/>
</svg>
