<svg width="43" height="43" viewBox="0 0 43 43" fill="none" xmlns="http://www.w3.org/2000/svg">
<rect x="1" y="1" width="41" height="41" rx="20.5" stroke="#D6232A" stroke-width="2"/>
<path fill-rule="evenodd" clip-rule="evenodd" d="M21.5 11.5C27.0212 11.5 31.5 15.9788 31.5 21.5C31.5 27.0212 27.0212 31.5 21.5 31.5C15.9788 31.5 11.5 27.0212 11.5 21.5C11.5 15.9788 15.9788 11.5 21.5 11.5ZM21.5 14.7558C17.777 14.7558 14.7558 17.777 14.7558 21.5C14.7558 25.223 17.777 28.2442 21.5 28.2442C25.223 28.2442 28.2442 25.223 28.2442 21.5C28.2442 20.2509 27.9029 19.0815 27.3103 18.0779C27.2964 18.4256 27.1735 18.772 26.9324 19.059L21.0721 26.0358C20.7691 26.3965 20.324 26.6082 19.853 26.6163C19.3821 26.6242 18.9308 26.4276 18.6157 26.0776L16.1039 23.2869C15.5025 22.6186 15.5566 21.5891 16.2247 20.9876C16.8513 20.4238 17.7957 20.4359 18.4068 20.9904L18.524 21.1085L19.7831 22.5074L24.4397 16.9642L24.5532 16.8425C24.9216 16.4847 25.4256 16.3334 25.9095 16.4001C24.7268 15.3765 23.1859 14.7558 21.5 14.7558Z" fill="#D6232A"/>
</svg>
