<svg width="43" height="43" viewBox="0 0 43 43" fill="none" xmlns="http://www.w3.org/2000/svg">
<rect x="1" y="1" width="41" height="41" rx="20.5" stroke="#D6232A" stroke-width="2"/>
<path d="M21.5 15.375C22.1213 15.375 22.625 15.8787 22.625 16.5V21H25.25C25.8713 21 26.375 21.5037 26.375 22.125C26.375 22.7463 25.8713 23.25 25.25 23.25H21.5C20.8787 23.25 20.375 22.7463 20.375 22.125V16.5C20.375 15.8787 20.8787 15.375 21.5 15.375Z" fill="#D6232A"/>
<path fill-rule="evenodd" clip-rule="evenodd" d="M21.5 12.875C26.2619 12.875 30.125 16.7381 30.125 21.5C30.125 26.2619 26.2619 30.125 21.5 30.125C16.7381 30.125 12.875 26.2619 12.875 21.5C12.875 16.7381 16.7381 12.875 21.5 12.875ZM21.5 15.125C17.9807 15.125 15.125 17.9807 15.125 21.5C15.125 25.0193 17.9807 27.875 21.5 27.875C25.0193 27.875 27.875 25.0193 27.875 21.5C27.875 17.9807 25.0193 15.125 21.5 15.125Z" fill="#D6232A"/>
</svg>
