<svg width="23" height="8" viewBox="0 0 23 8" fill="none" xmlns="http://www.w3.org/2000/svg">
<path d="M0.146447 3.32845C-0.0488155 3.52372 -0.0488155 3.8403 0.146447 4.03556L3.32843 7.21754C3.52369 7.4128 3.84027 7.4128 4.03553 7.21754C4.2308 7.02228 4.2308 6.7057 4.03553 6.51043L1.20711 3.68201L4.03553 0.85358C4.2308 0.658318 4.2308 0.341735 4.03553 0.146473C3.84027 -0.0487893 3.52369 -0.0487893 3.32843 0.146473L0.146447 3.32845ZM22.8536 4.03556C23.0488 3.8403 23.0488 3.52372 22.8536 3.32845L19.6716 0.146473C19.4763 -0.0487893 19.1597 -0.0487893 18.9645 0.146473C18.7692 0.341735 18.7692 0.658318 18.9645 0.85358L21.7929 3.68201L18.9645 6.51043C18.7692 6.7057 18.7692 7.02228 18.9645 7.21754C19.1597 7.4128 19.4763 7.4128 19.6716 7.21754L22.8536 4.03556ZM0.5 3.68201V4.18201H22.5V3.68201V3.18201H0.5V3.68201Z" fill="#D6232A"/>
</svg>
