<svg width="24" height="24" viewBox="0 0 24 24" fill="none" xmlns="http://www.w3.org/2000/svg">
<path fill-rule="evenodd" clip-rule="evenodd" d="M18.918 1.6615C19.924 1.48296 20.8869 1.44368 21.6687 1.63438C21.8444 1.67657 22.0045 1.76768 22.1306 1.89718C22.2552 2.02518 22.3414 2.18548 22.3796 2.35985C22.5631 3.16478 22.525 4.13589 22.3459 5.14959C22.1646 6.17616 21.8295 7.29708 21.3759 8.42227C20.4722 10.6645 19.0695 12.9937 17.3792 14.6752C16.8823 15.1751 16.3499 15.638 15.7862 16.0603C15.8231 16.9806 15.7181 17.9329 15.343 18.7937L15.3427 18.7945C14.7349 20.1845 13.64 21.0573 12.5855 21.5993C11.534 22.1397 10.4771 22.376 9.84995 22.4768C9.67259 22.5055 9.49101 22.493 9.31924 22.4402C9.14748 22.3875 8.99014 22.296 8.85937 22.1728C8.72861 22.0496 8.62793 21.898 8.56511 21.7297C8.50229 21.5613 8.47902 21.3808 8.49709 21.2021C8.4973 21.1999 8.49753 21.1978 8.49776 21.1957L8.82815 18.1854C8.79469 18.1821 8.76124 18.1786 8.72782 18.1748C8.35969 18.1369 8.01606 17.9725 7.75544 17.7097C7.75485 17.7091 7.75425 17.7085 7.75365 17.7079L6.28841 16.2426C6.28781 16.242 6.2872 16.2414 6.2866 16.2408C6.02389 15.9804 5.85952 15.6369 5.82142 15.269C5.81752 15.2338 5.81382 15.1987 5.81033 15.1635L2.79732 15.4943L2.79422 15.4946L2.79189 15.4948C2.61291 15.5132 2.4321 15.49 2.26349 15.4273C2.09488 15.3645 1.94299 15.2637 1.81961 15.1327C1.69622 15.0018 1.60464 14.8442 1.55196 14.6722C1.49928 14.5001 1.48693 14.3183 1.51585 14.1407L1.51607 14.1393C1.61906 13.5141 1.85642 12.4589 2.39763 11.408C2.94023 10.3544 3.81272 9.26025 5.20172 8.64952L5.20371 8.64865C6.06483 8.27299 7.02222 8.16817 7.94823 8.2086C8.37062 7.64692 8.83319 7.11637 9.33238 6.62118C11.0188 4.93637 13.3832 3.53435 15.6402 2.63121C16.7729 2.17792 17.8976 1.84259 18.918 1.6615ZM16.1975 4.02385C14.0749 4.87321 11.8988 6.17716 10.3917 7.68317L10.3897 7.68516C9.85142 8.21903 9.36059 8.79871 8.92277 9.41765C8.76831 9.636 8.50926 9.75557 8.24289 9.73147C7.32996 9.64888 6.48542 9.72634 5.80456 10.0231C4.82735 10.453 4.17245 11.2379 3.73117 12.0948C3.39124 12.7548 3.19262 13.4309 3.07832 13.9544L6.43378 13.586C6.64448 13.5629 6.85513 13.63 7.01362 13.7707C7.17211 13.9115 7.26365 14.1127 7.2656 14.3247C7.26799 14.5859 7.28368 14.8468 7.31258 15.1064C7.31287 15.109 7.31315 15.1116 7.31342 15.1142C7.31577 15.1375 7.32617 15.1593 7.34284 15.1758L7.34596 15.1789L8.81736 16.6503L8.82042 16.6534C8.83691 16.67 8.85871 16.6804 8.88205 16.6828C8.88486 16.6831 8.88767 16.6834 8.89048 16.6837C9.14846 16.7124 9.40773 16.7281 9.6673 16.7307C9.87918 16.7327 10.0803 16.8243 10.2209 16.9828C10.3616 17.1413 10.4286 17.3518 10.4055 17.5624L10.0375 20.9156C10.5609 20.8029 11.2386 20.605 11.8998 20.2652C12.7572 19.8245 13.5412 19.1701 13.968 18.1942C14.2655 17.5113 14.3429 16.6706 14.2645 15.7604C14.2416 15.4946 14.3616 15.2367 14.5797 15.083C15.2004 14.6457 15.7816 14.1549 16.3167 13.6164L16.3199 13.6132C17.8341 12.1074 19.1372 9.96406 19.9847 7.86151C20.4069 6.81398 20.7088 5.79416 20.8688 4.88863C20.9985 4.15463 21.0293 3.5271 20.9736 3.03295C20.5081 2.98046 19.902 3.01029 19.1801 3.13842C18.2796 3.29823 17.2546 3.60081 16.1975 4.02385ZM9.61157 20.9959C9.61127 20.9959 9.61098 20.996 9.61068 20.996L9.61136 20.9959C9.61143 20.9959 9.6115 20.9959 9.61157 20.9959ZM15.4148 7.34873C15.1673 7.34873 14.9253 7.42214 14.7195 7.55968C14.5137 7.69721 14.3532 7.8927 14.2585 8.12141C14.1638 8.35012 14.139 8.60178 14.1874 8.84457C14.2357 9.08736 14.3549 9.31036 14.53 9.48538L13.9995 10.0159L14.5306 9.48601C14.6466 9.60229 14.7844 9.69454 14.9362 9.75749C15.0879 9.82043 15.2506 9.85283 15.4148 9.85283C15.5791 9.85283 15.7418 9.82043 15.8935 9.75749C16.0452 9.69454 16.1831 9.60229 16.2991 9.48601L16.2997 9.48538C16.4748 9.31036 16.594 9.08736 16.6423 8.84457C16.6907 8.60178 16.6659 8.35012 16.5712 8.12141C16.4764 7.8927 16.316 7.69721 16.1102 7.55968C15.9044 7.42214 15.6624 7.34873 15.4148 7.34873ZM13.4692 10.5459C13.0844 10.1612 12.8224 9.67099 12.7162 9.13733C12.61 8.60356 12.6644 8.05028 12.8727 7.54746C13.0809 7.04465 13.4336 6.61487 13.8861 6.3125C14.3386 6.01012 14.8706 5.84873 15.4148 5.84873C15.9591 5.84873 16.4911 6.01012 16.9436 6.3125C17.3961 6.61487 17.7488 7.04464 17.957 7.54746C18.1653 8.05028 18.2197 8.60356 18.1135 9.13733C18.0073 9.67081 17.7454 10.1608 17.3609 10.5455C17.1055 10.8014 16.8022 11.0045 16.4683 11.143C16.1343 11.2815 15.7764 11.3528 15.4148 11.3528C15.0533 11.3528 14.6954 11.2815 14.3614 11.143C14.0277 11.0045 13.7245 10.8017 13.4692 10.5459Z" fill="#B81B22"/>
<path fill-rule="evenodd" clip-rule="evenodd" d="M5.88379 16.4086C5.93426 16.8198 5.64188 17.194 5.23076 17.2444C4.92976 17.2814 4.6497 17.4177 4.43496 17.6318C4.36291 17.7045 4.2466 17.9038 4.13178 18.2797C4.02419 18.6319 3.94365 19.0508 3.88504 19.4665C3.84848 19.7257 3.82146 19.9763 3.8016 20.1984C4.02389 20.1785 4.27473 20.1515 4.53413 20.1149C4.94983 20.0562 5.36864 19.9756 5.72063 19.8679C6.09728 19.7527 6.29573 19.6362 6.36718 19.5647L6.36845 19.5634C6.58299 19.3498 6.71929 19.0701 6.75534 18.7695C6.80465 18.3582 7.17803 18.0648 7.5893 18.1141C8.00057 18.1634 8.29398 18.5368 8.24467 18.9481C8.16849 19.5833 7.88056 20.1743 7.42733 20.6258C7.0856 20.9673 6.59068 21.1704 6.15938 21.3023C5.70308 21.4419 5.19913 21.5359 4.74373 21.6002C4.28489 21.6649 3.85608 21.7021 3.54319 21.7232C3.38621 21.7337 3.25712 21.7403 3.16646 21.7443C3.1211 21.7463 3.08527 21.7476 3.0603 21.7485C3.04781 21.7489 3.03802 21.7492 3.0311 21.7494L3.0229 21.7497L3.01934 21.7498C3.01922 21.7498 3.01911 21.7498 3 21C2.25024 20.9809 2.25025 20.9808 2.25025 20.9807L2.25035 20.9771L2.25058 20.9689C2.25079 20.962 2.25109 20.9522 2.25152 20.9397C2.25237 20.9148 2.25371 20.879 2.2557 20.8336C2.25967 20.743 2.26627 20.614 2.27683 20.4571C2.29789 20.1444 2.33505 19.7157 2.39973 19.257C2.46393 18.8017 2.55782 18.2979 2.6972 17.8415C2.8291 17.4097 3.03203 16.9146 3.37299 16.5725L3.37426 16.5712C3.82568 16.1204 4.41478 15.8333 5.04799 15.7556C5.45912 15.7051 5.83332 15.9975 5.88379 16.4086ZM3 21L2.25024 20.9809C2.245 21.1864 2.32432 21.385 2.46967 21.5303C2.61501 21.6757 2.81363 21.755 3.01911 21.7498L3 21Z" fill="#B81B22"/>
</svg>
