<svg width="32" height="32" viewBox="0 0 32 32" fill="none" xmlns="http://www.w3.org/2000/svg">
<path d="M16 32C24.8366 32 32 24.8366 32 16C32 7.16344 24.8366 0 16 0C7.16344 0 0 7.16344 0 16C0 24.8366 7.16344 32 16 32Z" fill="url(#paint0_linear_65_1472)"/>
<path d="M5.95881 16.7826C7.82921 15.7524 9.91708 14.8925 11.8679 14.0282C15.224 12.6126 18.5935 11.2216 21.9969 9.92649C22.6591 9.70583 23.8489 9.49007 23.9656 10.4714C23.9017 11.8604 23.6389 13.2414 23.4587 14.6223C23.0012 17.6591 22.4723 20.6855 21.9567 23.7123C21.779 24.7205 20.516 25.2424 19.7079 24.5972C17.7657 23.2854 15.8087 21.9863 13.8913 20.644C13.2633 20.0058 13.8457 19.0894 14.4066 18.6336C16.0062 17.0572 17.7026 15.7179 19.2186 14.06C19.6275 13.0725 18.4193 13.9048 18.0207 14.1598C15.8308 15.6688 13.6946 17.27 11.3858 18.5963C10.2064 19.2455 8.83191 18.6907 7.65311 18.3285C6.59619 17.8909 5.04737 17.45 5.95871 16.7827L5.95881 16.7826Z" fill="white"/>
<defs>
<linearGradient id="paint0_linear_65_1472" x1="21.3347" y1="5.3344" x2="13.3347" y2="24" gradientUnits="userSpaceOnUse">
<stop stop-color="#37AEE2"/>
<stop offset="1" stop-color="#1E96C8"/>
</linearGradient>
</defs>
</svg>
