<svg width="17" height="23" viewBox="0 0 17 23" fill="none" xmlns="http://www.w3.org/2000/svg">
<path d="M8.96191 18.8252L8.95898 18.8242L8.74707 18.7412C8.31041 18.5992 7.79896 18.5992 7.3623 18.7412L7.15039 18.8242L7.14746 18.8262V18.8252L4.73438 19.9688L4.74121 14.7695C5.74955 15.2198 6.86946 15.4746 8.0498 15.4746C9.24076 15.4746 10.3695 15.2138 11.3848 14.7559V19.9688L8.96191 18.8252ZM8.96191 18.8252V18.8262V18.8252ZM8.0498 0.125C12.4109 0.125 15.9746 3.55165 15.9746 7.7998C15.9746 9.87914 15.1179 11.7604 13.7344 13.1406V20.1895C13.7344 21.0156 13.3935 21.7457 12.749 22.1582L12.6641 22.2119L12.6611 22.209C12.3943 22.364 12.1061 22.4495 11.8105 22.4697L11.6699 22.4746C11.3173 22.4746 10.9778 22.3867 10.6465 22.2383L10.6416 22.2363V22.2354L10.6377 22.2334L8.03906 21.0078L5.46191 22.2246C4.76591 22.5548 3.98654 22.5611 3.36035 22.1572C2.71535 21.7441 2.37306 21.0028 2.38477 20.1836L2.39258 13.1709C0.992003 11.788 0.125 9.89355 0.125 7.7998C0.125 3.55165 3.68875 0.125 8.0498 0.125ZM8.0498 2.47461C4.95748 2.47461 2.47461 4.88121 2.47461 7.7998C2.47461 10.7184 4.95748 13.125 8.0498 13.125C11.1421 13.125 13.625 10.7184 13.625 7.7998C13.625 4.88121 11.1421 2.47461 8.0498 2.47461Z" fill="#D6232A" stroke="#D6232A" stroke-width="0.25"/>
</svg>
