<svg width="32" height="32" viewBox="0 0 32 32" fill="none" xmlns="http://www.w3.org/2000/svg">
<path d="M16 0C24.8366 0 32 7.16344 32 16C32 24.8366 24.8366 32 16 32C7.16344 32 0 24.8366 0 16C0 7.16344 7.16344 0 16 0Z" fill="#7F4DA0"/>
<path d="M20.2627 13.0411C20.1849 12.4089 19.9906 11.9125 19.6455 11.4728C19.1974 10.9066 18.6248 10.5676 17.777 10.3665C17.2245 10.2324 17.0013 10.2478 16.8015 10.4303C16.6153 10.6013 16.579 10.9442 16.7212 11.1662C16.8213 11.3273 16.9367 11.385 17.2576 11.448C17.685 11.5267 17.9804 11.6287 18.2491 11.7823C18.8194 12.1116 19.0849 12.6269 19.1134 13.4612C19.1267 13.8529 19.1605 13.9733 19.2973 14.1122C19.5509 14.3662 20.0022 14.3168 20.1936 14.0129C20.2638 13.8983 20.2745 13.8485 20.282 13.5825C20.2869 13.4178 20.2798 13.1727 20.2627 13.0411Z" fill="white"/>
<path d="M22.4964 13.4592C22.3838 11.5223 21.6262 9.96399 20.2703 8.86758C19.5064 8.2515 18.583 7.82787 17.5708 7.62185C17.2001 7.54817 16.5174 7.48845 16.4003 7.52261C16.2898 7.55424 16.1335 7.6739 16.0638 7.78211C15.9902 7.89946 15.9735 8.16147 16.0364 8.31302C16.1378 8.56637 16.3266 8.65588 16.855 8.70211C17.6698 8.7734 18.5101 9.05964 19.1451 9.4834C19.8699 9.96589 20.4462 10.6258 20.819 11.4013C21.141 12.0676 21.3391 13.0278 21.3336 13.8877C21.3318 14.1986 21.3798 14.3743 21.5049 14.5027C21.6937 14.7001 21.9688 14.7433 22.2117 14.6121C22.4808 14.4706 22.5438 14.2221 22.4964 13.4592Z" fill="white"/>
<path d="M24.9682 22.2895C24.9303 22.1788 24.8419 22.008 24.7787 21.91C24.3808 21.3092 22.243 19.6361 21.1757 19.089C20.5662 18.7759 20.1147 18.6716 19.7799 18.7696C19.4199 18.8708 19.2305 19.0384 18.6273 19.7879C18.3842 20.0884 18.1347 20.3699 18.0684 20.4141C17.9042 20.528 17.5821 20.6197 17.3547 20.6197C16.8274 20.6165 15.8706 20.275 15.1348 19.8259C14.5632 19.478 13.8307 18.855 13.2686 18.2383C12.6054 17.5141 12.1539 16.8752 11.797 16.1541C11.336 15.2275 11.2192 14.6614 11.4118 14.2471C11.4591 14.1427 11.5223 14.0321 11.5507 13.9972C11.5791 13.9657 11.876 13.7221 12.2044 13.4564C12.8486 12.9441 12.9528 12.8271 13.0728 12.4761C13.2243 12.0301 13.1833 11.5747 12.9496 11.1162C12.7696 10.7683 12.2991 10.0093 11.9581 9.51906C11.5065 8.87392 10.3823 7.49504 10.1581 7.3084C9.75391 6.97952 9.23608 6.92256 8.66447 7.14398C8.06138 7.37802 6.93086 8.28883 6.44771 8.92452C6.01193 9.50009 5.84462 9.90804 5.81933 10.4457C5.79724 10.8884 5.83512 11.0719 6.0688 11.638C7.89717 16.0782 10.6255 19.6235 14.3738 22.4382C16.3316 23.9088 18.3621 25.0283 20.4683 25.7937C21.6967 26.2396 22.2304 26.2617 22.8588 25.8949C23.124 25.7367 23.7808 25.0631 24.1471 24.5729C24.7534 23.757 24.9776 23.3806 25.0408 23.0802C25.085 22.8746 25.0503 22.5173 24.9682 22.2895Z" fill="white"/>
<path d="M24.7703 13.6779C24.7299 12.5823 24.5454 11.6836 24.1608 10.6816C23.781 9.69606 23.3967 9.05291 22.6708 8.18303C21.9846 7.36741 21.4515 6.90171 20.6062 6.38333C19.4268 5.66106 17.9915 5.1831 16.3829 4.98209C15.8344 4.91183 15.7103 4.91685 15.542 5.02914C15.2158 5.24187 15.2202 5.77245 15.5474 5.98199C15.6556 6.04864 15.7517 6.07292 16.1905 6.13035C16.8641 6.22104 17.2972 6.30651 17.8112 6.44673C19.8265 6.99765 21.3763 8.12375 22.4125 9.79539C23.2795 11.1887 23.6395 12.5821 23.5884 14.3618C23.5706 14.9634 23.5835 15.0693 23.6755 15.2139C23.8516 15.4833 24.3161 15.5366 24.5543 15.313C24.7026 15.1768 24.7305 15.0745 24.7597 14.5595C24.7737 14.2909 24.7767 13.8944 24.7703 13.6779Z" fill="white"/>
</svg>
