<svg width="18" height="22" viewBox="0 0 18 22" fill="none" xmlns="http://www.w3.org/2000/svg">
<path d="M12 0H6V2.08333H12V0Z" fill="#D6232A"/>
<path fill-rule="evenodd" clip-rule="evenodd" d="M16.03 6.65625L17.45 5.17708C17.02 4.64583 16.55 4.14583 16.04 3.70833L14.62 5.1875C13.07 3.89583 11.12 3.125 9 3.125C4.03 3.125 0 7.32292 0 12.5C0 17.6771 4.02 21.875 9 21.875C13.98 21.875 18 17.6771 18 12.5C18 10.2917 17.26 8.26042 16.03 6.65625ZM9 19.7917C5.13 19.7917 2 16.5312 2 12.5C2 8.46875 5.13 5.20833 9 5.20833C12.87 5.20833 16 8.46875 16 12.5C16 16.5312 12.87 19.7917 9 19.7917Z" fill="#D6232A"/>
<path d="M8 13.5417H10V7.29167H8V13.5417Z" fill="#D6232A"/>
</svg>
