<svg width="43" height="43" viewBox="0 0 43 43" fill="none" xmlns="http://www.w3.org/2000/svg">
<rect x="1" y="1" width="41" height="41" rx="20.5" stroke="white" stroke-width="2"/>
<path fill-rule="evenodd" clip-rule="evenodd" d="M25.905 13C27.6129 13.0001 29.0288 13.4841 30.0174 14.4521C31.0057 15.4203 31.5 16.8078 31.5 18.4806V24.5204C31.4999 26.1932 31.0059 27.5798 30.0174 28.5479C29.0288 29.5161 27.6131 29.9999 25.905 30H17.095C16.4421 30 15.906 29.4744 15.9056 28.8351C15.9056 28.1954 16.4418 27.6702 17.095 27.6702H25.905C27.087 27.6702 27.8628 27.3879 28.3479 26.9129C28.833 26.4378 29.1211 25.6779 29.1212 24.5204V18.4806C29.1212 17.3232 28.8328 16.5623 28.3479 16.0871C27.8627 15.6122 27.0867 15.3308 25.905 15.3308H17.095C15.9128 15.3308 15.1363 15.612 14.6511 16.0871C14.166 16.5623 13.8788 17.3228 13.8788 18.4806C13.8783 19.1198 13.3421 19.6453 12.6894 19.6455C12.0365 19.6455 11.5005 19.1199 11.5 18.4806C11.5 16.8076 11.993 15.4203 12.9816 14.4521C13.9703 13.4838 15.3867 13 17.095 13H25.905Z" fill="white"/>
<path fill-rule="evenodd" clip-rule="evenodd" d="M17.9757 24.2191C18.6287 24.2193 19.1651 24.7444 19.1651 25.384C19.1645 26.0231 18.6283 26.5486 17.9757 26.5488H12.6894C12.0366 26.5488 11.5006 26.0232 11.5 25.384C11.5 24.7442 12.0362 24.2191 12.6894 24.2191H17.9757Z" fill="white"/>
<path d="M15.3325 20.7669C15.9855 20.7671 16.5219 21.2922 16.5219 21.9318C16.5217 22.5711 15.9854 23.0964 15.3325 23.0967H12.6894C12.0364 23.0967 11.5003 22.5713 11.5 21.9318C11.5 21.2921 12.0362 20.7669 12.6894 20.7669H15.3325Z" fill="white"/>
<path fill-rule="evenodd" clip-rule="evenodd" d="M25.1606 17.9983C25.6672 17.5981 26.4317 17.6691 26.8374 18.1934C27.2364 18.6895 27.1615 19.4309 26.6298 19.8255L26.6288 19.8245L23.8824 21.9742L23.8814 21.9732C23.2089 22.5154 22.3385 22.769 21.4995 22.769C20.6567 22.769 19.7845 22.5141 19.1042 21.9712L16.3505 19.8164L16.3475 19.8144C15.8505 19.4189 15.7425 18.6894 16.1647 18.1803C16.5675 17.6947 17.3093 17.5881 17.829 17.9983L20.5868 20.1551L20.5878 20.1561C20.8119 20.3321 21.1409 20.4372 21.4954 20.4372C21.8498 20.4371 22.1778 20.3321 22.4019 20.1561L22.4029 20.1551L25.1606 17.9983Z" fill="white"/>
</svg>
