<svg width="32" height="32" viewBox="0 0 32 32" fill="none" xmlns="http://www.w3.org/2000/svg">
<path d="M16 32C24.8366 32 32 24.8366 32 16C32 7.16344 24.8366 0 16 0C7.16344 0 0 7.16344 0 16C0 24.8366 7.16344 32 16 32Z" fill="#25D366"/>
<path d="M16.5271 5.86664C19.0722 5.86774 21.4613 6.85836 23.2575 8.65668C25.0538 10.4549 26.0427 12.846 26.0417 15.3881C26.0394 20.6324 21.7725 24.8997 16.5271 24.9018H16.5232C14.9311 24.9012 13.3667 24.5014 11.9773 23.7436L6.93332 25.0668L8.28293 20.1362C7.45049 18.6934 7.01271 17.0569 7.0134 15.3803C7.01548 10.1347 11.2831 5.86675 16.5271 5.86664ZM16.53 7.47406C12.1685 7.47432 8.6218 11.0207 8.61984 15.3803C8.61923 16.8745 9.03725 18.3303 9.82883 19.5893L10.0163 19.8881L9.2175 22.8061L12.2107 22.0209L12.4997 22.1928C13.7138 22.9131 15.1053 23.2948 16.5241 23.2953H16.5271C20.8856 23.2953 24.4335 19.7474 24.4353 15.3871C24.4361 13.2742 23.6138 11.2872 22.1208 9.79242C20.6279 8.29786 18.642 7.47479 16.53 7.47406ZM13.615 10.9946C13.7608 11.0018 13.9564 10.9399 14.1491 11.4028C14.3472 11.8788 14.8231 13.0494 14.8825 13.1684C14.9419 13.2873 14.9812 13.4259 14.9021 13.5844C14.8229 13.7428 14.7834 13.8423 14.6648 13.9809C14.5459 14.1196 14.4153 14.2913 14.3083 14.3979C14.1893 14.5164 14.0652 14.6452 14.2038 14.8832C14.3428 15.1217 14.8198 15.8997 15.5261 16.5297C16.4341 17.3397 17.2005 17.5904 17.4382 17.7094C17.6757 17.8284 17.8142 17.8084 17.9529 17.6498C18.0916 17.4911 18.5473 16.9562 18.7058 16.7182C18.8642 16.4803 19.0231 16.5198 19.2409 16.5991C19.46 16.6791 20.6274 17.2536 20.865 17.3725C21.1023 17.4914 21.2605 17.5509 21.32 17.6498C21.3794 17.749 21.3803 18.2253 21.1823 18.7807C20.9842 19.336 20.0337 19.8424 19.5769 19.9106C19.1674 19.9718 18.6491 19.9978 18.0798 19.8168C17.7345 19.7073 17.2915 19.5608 16.7243 19.3159C14.3398 18.286 12.7826 15.8847 12.6638 15.726C12.5444 15.5667 11.6931 14.4367 11.6931 13.267C11.6931 12.0971 12.3072 11.5216 12.5251 11.2836C12.7429 11.0459 13.0005 10.9868 13.1589 10.9868C13.3174 10.9868 13.4765 10.9876 13.615 10.9946Z" fill="#FDFDFD"/>
</svg>
