<svg width="24" height="23" viewBox="0 0 24 23" fill="none" xmlns="http://www.w3.org/2000/svg">
<path d="M8.93066 16.2192C10.6291 14.5916 13.3805 14.5912 15.0693 16.2192L15.1445 16.2915L15.0693 16.3638L12.0693 19.2388L12 19.3052L11.9307 19.2388L8.93066 16.3638L8.85547 16.2915L8.93066 16.2192ZM4.93066 12.3862C8.83927 8.65016 15.1706 8.64995 19.0693 12.3862L19.1445 12.4585L19.0693 12.5308L17.0693 14.4468L17 14.5132L16.9307 14.4468C14.2094 11.8392 9.79058 11.8392 7.06934 14.4468L7 14.5132L6.93066 14.4468L4.93066 12.5308L4.85547 12.4585L4.93066 12.3862ZM0.930664 8.55322C7.0493 2.69918 16.9606 2.69904 23.0693 8.55322L23.1445 8.62549L23.0693 8.69678L21.0693 10.6138L21 10.6802L20.9307 10.6138C15.9994 5.88809 8.00062 5.88809 3.06934 10.6138L3 10.6802L2.93066 10.6138L0.930664 8.69678L0.855469 8.62451L0.930664 8.55322Z" fill="#D6232A" stroke="#D6232A" stroke-width="0.2"/>
</svg>
