<svg width="43" height="43" viewBox="0 0 43 43" fill="none" xmlns="http://www.w3.org/2000/svg">
<rect x="1" y="1" width="41" height="41" rx="20.5" stroke="white" stroke-width="2"/>
<g clip-path="url(#clip0_115_169)">
<path fill-rule="evenodd" clip-rule="evenodd" d="M19.2797 13.2431C20.3124 12.5206 21.6874 12.5205 22.7201 13.2431L29.3871 17.9101C30.1491 18.4439 30.5004 19.3344 30.5004 20.3681V28.6669C30.5002 29.5022 30.2085 30.0577 29.7572 30.4169C29.2886 30.7898 28.585 30.9999 27.6879 30.9999H14.5004C13.5921 30.9999 12.9837 30.8063 12.6049 30.4746C12.2394 30.1542 12.0006 29.6271 12.0004 28.7519V20.3681C12.0004 19.7577 11.9762 19.2756 12.0551 18.8417C12.1275 18.444 12.2799 18.1438 12.6137 17.9101L19.2797 13.2431ZM27.7729 21.9482C27.631 21.856 27.4519 21.8415 27.2973 21.9101L22.2182 24.1679C21.4912 24.4908 20.667 24.511 19.9281 24.2285L19.7817 24.1679L14.7035 21.9101C14.549 21.8414 14.3698 21.8561 14.2279 21.9482C14.0862 22.0404 14.0004 22.198 14.0004 22.3671V28.4999C14.0005 28.776 14.2243 28.9999 14.5004 28.9999H27.5004C27.7763 28.9997 28.0003 28.7759 28.0004 28.4999V22.3671C28.0004 22.1981 27.9145 22.0405 27.7729 21.9482ZM21.2865 15.4941C21.1144 15.3736 20.8844 15.3737 20.7123 15.4941L16.0473 18.7597C15.8997 18.8631 15.819 19.0383 15.8363 19.2177C15.8537 19.3971 15.9666 19.5537 16.1313 19.6269L20.7963 21.7001C20.9255 21.7574 21.0734 21.7575 21.2025 21.7001L25.8686 19.6269C26.0331 19.5536 26.1462 19.397 26.1635 19.2177C26.1808 19.0385 26.1 18.8631 25.9525 18.7597L21.2865 15.4941Z" fill="white"/>
</g>
<defs>
<clipPath id="clip0_115_169">
<rect width="20" height="20" fill="white" transform="translate(11.5 11.5)"/>
</clipPath>
</defs>
</svg>
