<svg width="43" height="43" viewBox="0 0 43 43" fill="none" xmlns="http://www.w3.org/2000/svg">
<rect x="1" y="1" width="41" height="41" rx="20.5" stroke="white" stroke-width="2"/>
<path d="M16.9401 11.5C17.3845 11.5 17.7939 11.741 18.0096 12.1295L19.506 14.8249C19.7019 15.1778 19.7111 15.6047 19.5305 15.9658L18.089 18.8489C18.089 18.8489 18.5068 20.9966 20.2551 22.7449C22.0035 24.4932 24.144 24.9037 24.144 24.9037L27.0266 23.4625C27.3879 23.2818 27.815 23.2911 28.1681 23.4874L30.8711 24.9902C31.2593 25.2061 31.5 25.6153 31.5 26.0594V29.1625C31.5 30.7428 30.0321 31.8842 28.5348 31.3789C25.4595 30.3413 20.6858 28.3656 17.6601 25.3398C14.6345 22.3142 12.6587 17.5405 11.621 14.4652C11.1158 12.9679 12.2572 11.5 13.8375 11.5H16.9401Z" stroke="white" stroke-width="2" stroke-linejoin="round"/>
</svg>
